<?xml version="1.0" encoding="utf-8"?>
<!-- Generator: Adobe Illustrator 24.2.1, SVG Export Plug-In . SVG Version: 6.00 Build 0)  -->
<svg version="1.1" id="Layer_4" xmlns="http://www.w3.org/2000/svg" xmlns:xlink="http://www.w3.org/1999/xlink" x="0px" y="0px"
	 viewBox="0 0 977.17 339.13" style="enable-background:new 0 0 977.17 339.13;" xml:space="preserve">
<style type="text/css">
	.st0{fill:#E9FF20;}
	.st1{fill:#7761FF;}
</style>
<g>
	<path class="st0" d="M153.44,136.22l-3.19-3.03c-2.92,4.66-6.38,9.7-10.88,12.83c-0.45,0.31-0.89,0.51-1.33,0.62
		c1.04,4.36-1.34,9.68-7.14,9.68c-9.85,0-9.83-15.28,0-15.28c0.99,0,1.87,0.16,2.66,0.44c0.21-0.92,0.74-1.8,1.7-2.47
		c1.71-1.19,3.02-2.96,4.2-4.65c1.42-2.02,2.96-3.96,4.26-6.06c0.18-0.29,0.37-0.53,0.58-0.75l-10.85-10.3
		c-1.31-1.24-3.36-1.24-4.67-0.01l-20.33,19.19c-1.91,1.81-3,4.32-3,6.95l-0.04,92.99h51v-93.22
		C156.42,140.54,155.34,138.03,153.44,136.22z"/>
	<g id="freebys">
		<path class="st1" d="M320.75,100.85c-42.7,0-69.93,28.83-69.93,68.86c0,42.17,26.96,70.19,72.33,70.19
			c20.02,0,42.7-6.94,56.58-21.35l-20.82-20.55c-7.47,7.74-23.22,12.28-35.23,12.28c-22.95,0-37.1-11.74-39.23-28.03H387.2
			C392.28,128.07,364.79,100.85,320.75,100.85z M284.98,155.29c4.8-17.08,19.22-25.62,36.83-25.62c18.68,0,32.03,8.54,34.16,25.62
			H284.98z"/>
		<path class="st1" d="M226.3,101.38c-13.35,0-26.96,2.4-37.1,18.68l-2.4-13.51l-29.85,0.16c-1.89,23.54-23.96,43.2-24.94,44.07
			c-0.32,0.29-0.73,0.43-1.13,0.43c-0.47,0-0.94-0.19-1.27-0.57c-0.62-0.7-0.56-1.78,0.14-2.4c0.23-0.2,21.8-19.44,23.78-41.52
			l-47.87,0.01v-8.82c0-16.01,8.54-23.49,19.75-23.49c6.67,0,13.08,2.4,20.02,6.94l12.01-24.29c-10.68-6.94-22.69-10.68-34.16-10.68
			c-26.42,0-50.18,16.28-50.18,51.51v8.81H48.54v28.56H73.1v101.15h32.36l0.04-92.86c0-2.63,1.09-5.15,3-6.95l20.33-19.19
			c1.31-1.24,3.36-1.23,4.67,0.01l8.89,8.44c-3.44,5.85-7.47,10.79-10.56,14.2c-0.31-0.03-0.62-0.05-0.94-0.05
			c-5.23,0-9.47,4.24-9.47,9.47s4.24,9.47,9.47,9.47s9.47-4.24,9.47-9.47c0-0.35-0.02-0.69-0.06-1.03
			c3.15-3.44,7.2-8.33,10.91-14.22l2.27,2.15c1.9,1.81,2.98,4.31,2.98,6.94v93.01h0.18v0.08h32.56v-69.39
			c0-24.29,15.75-33.36,32.83-33.36c10.68,0,16.81,2.94,23.49,8.54l14.68-28.29C252.99,106.72,239.91,101.38,226.3,101.38z"/>
		<path class="st1" d="M465.67,100.85c-42.7,0-69.93,28.83-69.93,68.86c0,42.17,26.96,70.19,72.33,70.19
			c20.02,0,42.7-6.94,56.58-21.35l-20.82-20.55c-7.47,7.74-23.22,12.28-35.23,12.28c-22.95,0-37.1-11.74-39.23-28.03h102.75
			C537.2,128.07,509.71,100.85,465.67,100.85z M429.91,155.29c4.8-17.08,19.22-25.62,36.83-25.62c18.68,0,32.03,8.54,34.16,25.62
			H429.91z"/>
		<polygon class="st1" points="783.48,104.85 759.46,162.5 745.85,198.79 733.3,161.7 713.29,104.85 675.4,104.85 727.97,234.29 
			703.41,291.4 739.18,291.4 819.52,104.85 		"/>
		<path class="st1" d="M871.34,155.56c-16.81-1.07-24.55-5.87-24.55-14.41c0-8.27,8.54-13.08,24.02-13.08
			c12.54,0,23.22,2.94,32.56,11.74l18.15-21.35c-15.21-13.34-30.69-17.35-51.24-17.35c-24.02,0-55.51,10.68-55.51,41.1
			c0,29.89,29.63,38.97,54.45,40.84c18.68,1.07,26.16,4.8,26.16,13.88c0,9.61-11.48,16.01-23.75,15.75
			c-14.68-0.27-36.03-8.01-45.37-18.42l-16.01,23.22c19.22,20.02,40.03,23.49,60.85,23.49c37.63,0,56.58-20.02,56.58-43.24
			C927.65,162.76,896.15,157.15,871.34,155.56z"/>
		<path class="st1" d="M618.93,101.65c-13.88,0-35.5,7.47-43.24,21.08V49.87h-32.56v186.56h30.43l2.13-18.15
			c10.14,15.75,26.42,21.08,42.44,21.08c38.7,0,67.79-25.62,67.79-68.86C685.92,125.14,657.36,101.65,618.93,101.65z M615.99,209.21
			c-20.55,0-38.17-14.95-38.17-38.7c0-22.95,17.62-38.43,38.17-38.43c20.82,0,37.37,14.68,37.37,38.43
			C653.36,193.46,636.82,209.21,615.99,209.21z"/>
	</g>
	<g id="_x2E_com_expanded">
		<path class="st1" d="M779.53,286.77c0,7.27-11.02,7.27-11.02,0S779.53,279.52,779.53,286.77z"/>
		<path class="st1" d="M819.23,286.77c-4.36,4.28-8.95,5.97-14.53,5.97c-10.94,0-20.04-6.58-20.04-19.97s9.1-19.97,20.04-19.97
			c5.35,0,9.48,1.53,13.61,5.58l-5.89,6.2c-2.22-1.99-4.97-2.98-7.57-2.98c-6.27,0-10.86,4.59-10.86,11.17
			c0,7.19,4.9,11.02,10.71,11.02c2.98,0,5.97-0.84,8.26-3.14L819.23,286.77z"/>
		<path class="st1" d="M862.38,272.77c0,10.86-7.42,19.66-19.66,19.66s-19.58-8.8-19.58-19.66c0-10.79,7.5-19.66,19.51-19.66
			C854.65,253.12,862.38,261.99,862.38,272.77z M832.46,272.77c0,5.74,3.44,11.09,10.25,11.09s10.25-5.35,10.25-11.09
			c0-5.66-3.98-11.17-10.25-11.17C835.98,261.61,832.46,267.11,832.46,272.77z"/>
		<path class="st1" d="M894.66,291.6v-20.2c0-4.97-2.6-9.48-7.73-9.48c-5.05,0-8.03,4.51-8.03,9.48v20.2h-9.33v-37.79h8.64
			l0.69,4.59c1.99-3.82,6.35-5.2,9.95-5.2c4.51,0,9.03,1.84,11.17,7.04c3.37-5.36,7.73-6.88,12.62-6.88
			c10.71,0,15.99,6.58,15.99,17.9v20.35h-9.33v-20.35c0-4.97-2.07-9.18-7.12-9.18s-8.18,4.36-8.18,9.33v20.2h-9.34V291.6z"/>
	</g>
</g>
</svg>
