<svg version="1.0" xmlns="http://www.w3.org/2000/svg"
 width="2170.000000pt" height="717.000000pt" viewBox="0 0 2170.000000 717.000000"
 preserveAspectRatio="xMidYMid meet">
<metadata>
Created by potrace 1.16, written by Peter Selinger 2001-2019
</metadata>
<g transform="translate(0.000000,717.000000) scale(0.100000,-0.100000)"
fill="#000000" stroke="none">
<path d="M2419 6200 c-186 -34 -345 -103 -488 -211 -280 -212 -411 -532 -411
-1004 l0 -135 -280 0 -280 0 0 -320 0 -320 280 0 280 0 0 -1150 0 -1150 364 0
363 0 5 1078 c5 1026 6 1080 24 1119 17 38 159 178 482 476 78 72 91 69 220
-55 59 -56 108 -105 110 -109 4 -10 -109 -175 -172 -251 -49 -57 -62 -67 -99
-73 -93 -15 -158 -65 -185 -144 -72 -210 189 -374 348 -220 37 36 70 112 70
161 0 10 29 53 65 96 36 42 91 114 122 160 l57 82 39 -37 c83 -80 77 18 77
-1200 l0 -1083 375 0 374 0 3 888 3 887 33 97 c100 296 348 457 704 458 213 0
332 -40 514 -175 20 -14 24 -6 185 302 90 175 164 320 164 322 0 15 -133 109
-215 150 -181 93 -349 131 -575 131 -270 0 -447 -53 -612 -184 -63 -51 -148
-144 -184 -203 -8 -13 -16 -23 -20 -23 -3 0 -16 60 -28 133 -12 72 -25 140
-27 150 -5 15 -22 17 -172 17 -92 0 -244 -3 -338 -7 l-172 -6 -5 -54 c-20
-192 -155 -477 -330 -693 -87 -108 -239 -260 -260 -260 -9 0 -22 11 -29 25
-10 23 -5 31 87 126 247 258 421 568 450 804 l7 55 -541 0 -541 0 0 158 c0
236 34 349 139 459 71 74 194 123 311 123 115 -1 285 -54 395 -125 l55 -35
135 270 c74 148 135 274 135 279 0 15 -251 138 -346 169 -148 49 -227 63 -399
67 -129 4 -181 1 -266 -15z"/>
<path d="M12190 4025 l0 -2115 348 0 347 0 24 203 c13 111 24 203 25 205 2 1
19 -22 39 -51 87 -126 261 -263 413 -327 410 -171 1003 -108 1394 148 355 231
571 587 635 1047 18 125 20 400 5 520 -49 387 -178 674 -405 900 -267 267
-638 407 -1080 408 -130 0 -179 -4 -259 -22 -323 -73 -581 -221 -715 -410
l-31 -44 0 826 0 827 -370 0 -370 0 0 -2115z m1799 245 c272 -45 498 -205 614
-435 73 -147 109 -361 89 -532 -43 -362 -249 -627 -572 -736 -93 -31 -98 -32
-275 -31 -170 0 -185 1 -265 28 -47 16 -107 40 -135 53 -159 80 -320 247 -386
400 -67 155 -94 358 -70 521 14 95 59 235 97 301 40 69 126 176 175 220 123
107 306 192 464 214 61 8 202 7 264 -3z"/>
<path d="M7015 4979 c-781 -43 -1340 -550 -1441 -1308 -52 -392 25 -823 201
-1120 67 -113 97 -153 195 -255 278 -291 644 -439 1141 -462 372 -18 793 83
1092 262 72 43 209 149 249 191 l28 29 -235 234 -235 234 -37 -35 c-114 -107
-344 -199 -588 -234 -301 -44 -597 18 -797 166 -88 66 -145 131 -195 227 -38
70 -73 175 -73 216 0 15 102 16 1164 16 l1164 0 6 45 c11 70 8 390 -4 495
-101 884 -688 1350 -1635 1299z m450 -684 c50 -15 122 -43 160 -63 94 -49 200
-155 247 -247 35 -68 68 -171 68 -214 l0 -21 -804 0 -804 0 10 37 c40 145 155
301 288 393 85 58 152 88 253 115 133 34 126 34 317 30 156 -2 185 -6 265 -30z"/>
<path d="M10305 4979 c-301 -16 -582 -107 -825 -267 -112 -74 -290 -252 -364
-364 -172 -261 -252 -522 -263 -863 -25 -759 332 -1325 977 -1550 635 -221
1451 -77 1893 334 l48 45 -232 232 -231 231 -65 -49 c-225 -170 -621 -261
-933 -214 -178 27 -312 79 -433 168 -135 100 -235 258 -262 416 l-7 42 1166 0
c641 0 1167 1 1167 3 9 19 14 300 7 422 -30 569 -253 979 -661 1218 -256 149
-592 216 -982 196z m450 -683 c233 -70 381 -205 451 -412 13 -40 24 -86 24
-103 l0 -31 -805 0 -804 0 13 43 c63 198 216 369 411 458 53 24 160 56 245 73
14 2 104 3 200 1 156 -2 185 -5 265 -29z"/>
<path d="M19430 4971 c-119 -13 -286 -50 -394 -88 -412 -143 -639 -404 -670
-769 -19 -220 53 -441 192 -595 214 -237 570 -364 1132 -405 191 -14 346 -58
420 -121 57 -49 80 -101 80 -184 0 -158 -127 -286 -338 -339 -322 -81 -905 92
-1190 354 -23 21 -44 37 -46 35 -1 -2 -83 -121 -181 -263 l-179 -260 55 -49
c167 -151 268 -222 428 -302 166 -83 377 -141 603 -165 142 -15 439 -12 571 5
510 67 864 327 978 717 30 104 37 321 15 442 -80 424 -398 655 -1011 736 -44
5 -158 17 -254 25 -185 16 -224 23 -311 53 -88 31 -133 57 -177 104 -51 56
-66 102 -61 188 4 82 37 136 113 186 151 100 488 123 762 54 127 -33 279 -112
373 -195 l35 -32 204 240 204 241 -42 37 c-56 50 -202 148 -276 186 -142 72
-300 120 -483 148 -115 18 -446 27 -552 16z"/>
<path d="M15205 4879 c4 -11 272 -673 596 -1471 l590 -1452 -276 -640 c-151
-353 -275 -644 -275 -648 0 -5 181 -8 403 -8 l402 0 909 2112 c500 1162 911
2116 913 2121 2 4 -180 7 -405 7 l-409 0 -285 -687 c-158 -379 -348 -854 -424
-1058 -75 -203 -140 -373 -143 -377 -4 -4 -58 144 -120 330 -63 185 -229 664
-369 1065 l-256 727 -429 0 c-428 0 -428 0 -422 -21z"/>
<path d="M18100 1533 c-304 -21 -476 -269 -404 -583 37 -165 165 -279 348
-311 133 -23 258 4 356 77 l63 46 -71 71 c-69 69 -72 70 -90 53 -30 -26 -117
-56 -167 -56 -58 0 -144 33 -178 68 -89 93 -89 271 1 365 81 86 234 99 325 27
l24 -19 67 68 67 68 -37 33 c-73 63 -194 100 -304 93z"/>
<path d="M18906 1519 c-77 -12 -188 -72 -237 -127 -220 -247 -111 -657 196
-737 172 -44 362 6 467 125 71 80 108 184 108 302 0 179 -90 327 -244 399 -95
44 -184 56 -290 38z m174 -200 c63 -28 107 -74 130 -136 83 -222 -111 -424
-315 -329 -60 28 -98 73 -119 146 -20 67 -20 103 -1 168 20 66 66 119 130 148
61 29 116 30 175 3z"/>
<path d="M19987 1519 c-55 -9 -132 -50 -148 -80 -14 -27 -27 -14 -31 31 l-3
35 -97 3 -98 3 0 -426 0 -425 105 0 105 0 0 259 0 259 28 53 c59 114 200 134
279 40 45 -53 53 -106 53 -368 l0 -243 105 0 105 0 0 258 c0 228 3 262 19 297
49 110 182 147 265 75 56 -50 66 -107 66 -388 l0 -242 105 0 105 0 0 223 c0
358 -20 456 -110 546 -37 38 -63 53 -119 71 -147 47 -307 12 -387 -85 l-36
-44 -31 47 c-54 79 -165 120 -280 101z"/>
<path d="M17393 879 c-64 -19 -97 -96 -70 -162 21 -49 60 -72 120 -71 40 0 53
6 80 32 28 29 32 39 32 87 0 47 -4 58 -30 84 -34 33 -84 45 -132 30z"/>
</g>
</svg>